<svg width="221" height="54" viewBox="0 0 221 54" fill="current" xmlns="http://www.w3.org/2000/svg">
<path d="M67.2798 7.47507C67.6496 6.33068 68.436 5.36708 69.483 4.77537C70.5029 4.20644 71.6511 3.90737 72.8189 3.90649C73.9159 3.91888 74.9887 4.22998 75.9221 4.80638C76.9407 5.4012 77.7033 6.35174 78.0632 7.47507L89.281 38.677H79.8165L78.1408 33.3396H67.1247L65.4955 38.677H56.1862L67.2798 7.47507ZM69.3745 26.0938H75.9531L72.6948 15.3881L69.3745 26.0938Z" fill="#0052C9"/>
<path d="M111.406 37.1254C110.959 37.119 110.513 37.0776 110.072 37.0013C109.586 36.9123 109.109 36.7825 108.645 36.6134C108.22 36.4595 107.822 36.2396 107.465 35.9617C107.152 35.7215 106.919 35.3913 106.798 35.0153L102.469 19.3289L100.483 38.6769H92.3687L95.9682 8.34387C96.0138 7.7258 96.1995 7.1262 96.5113 6.5906C96.7915 6.08951 97.1593 5.6428 97.5974 5.27176C98.021 4.91987 98.4975 4.63714 99.0093 4.43395C99.4819 4.24175 99.9773 4.11138 100.483 4.04606C101.038 4.01752 101.595 4.04873 102.143 4.13915C102.728 4.2201 103.294 4.39841 103.819 4.66667C104.359 4.95574 104.847 5.33336 105.262 5.7838C105.707 6.30038 106.03 6.91008 106.209 7.56809L111.406 27.2575L116.604 7.56809C116.778 6.91476 117.09 6.30634 117.52 5.7838C117.928 5.32626 118.417 4.9476 118.962 4.66667C119.499 4.40041 120.076 4.22229 120.669 4.13915C121.212 4.0484 121.764 4.01718 122.314 4.04606C122.846 4.1039 123.368 4.23441 123.865 4.43395C124.371 4.64081 124.841 4.92329 125.262 5.27176C125.705 5.64216 126.078 6.08881 126.363 6.5906C126.67 7.1273 126.851 7.72694 126.891 8.34387L130.506 38.739H122.376L120.39 19.2048L115.999 35.0153C115.884 35.3941 115.65 35.7259 115.332 35.9617C114.978 36.2428 114.579 36.463 114.153 36.6134C113.693 36.7805 113.221 36.9102 112.741 37.0013C112.3 37.0769 111.854 37.1184 111.406 37.1254Z" fill="#0052C9"/>
<path d="M141.522 17.4361H153.268C153.804 17.428 154.335 17.5448 154.819 17.7774C155.239 18 155.605 18.3126 155.89 18.6929C156.177 19.0578 156.393 19.4736 156.526 19.9186C156.649 20.342 156.712 20.7808 156.712 21.2219C156.711 21.6577 156.648 22.0913 156.526 22.5097C156.391 22.9334 156.186 23.3319 155.921 23.6889C155.638 24.0591 155.271 24.3569 154.85 24.5578C154.363 24.7774 153.833 24.8886 153.299 24.8836H141.553V29.9107C141.508 30.2683 141.602 30.6296 141.817 30.9192C142.112 31.1064 142.462 31.1885 142.81 31.1519H154.105C154.64 31.1439 155.17 31.2552 155.657 31.4777C156.081 31.6737 156.452 31.9659 156.743 32.3311C157.013 32.6946 157.213 33.1049 157.333 33.5413C157.467 33.9628 157.535 34.4024 157.534 34.8446C157.535 35.297 157.467 35.7469 157.333 36.179C157.212 36.6351 157.001 37.0624 156.712 37.4357C156.422 37.807 156.057 38.1135 155.641 38.3356C155.157 38.5661 154.626 38.6828 154.09 38.677H139.428C138.34 38.702 137.254 38.5767 136.2 38.3046C135.417 38.1103 134.702 37.702 134.137 37.1254C133.593 36.5294 133.213 35.8023 133.035 35.0153C132.807 33.9972 132.703 32.9553 132.725 31.9122V10.873C132.705 9.82996 132.809 8.78828 133.035 7.76984C133.22 6.98528 133.599 6.25966 134.137 5.65969C134.706 5.08878 135.419 4.68154 136.2 4.48053C137.256 4.22219 138.341 4.10221 139.428 4.12366H153.655C154.193 4.11021 154.725 4.22735 155.207 4.465C155.626 4.68226 155.992 4.98957 156.278 5.36489C156.565 5.73548 156.781 6.15646 156.914 6.60617C157.033 7.04103 157.096 7.48953 157.1 7.94049C157.098 8.38651 157.035 8.8302 156.914 9.25933C156.778 9.68785 156.574 10.0914 156.309 10.454C156.025 10.8242 155.659 11.122 155.238 11.3229C154.751 11.5426 154.221 11.6538 153.686 11.6488H142.826C142.478 11.6122 142.128 11.6942 141.833 11.8815C141.618 12.171 141.523 12.5324 141.569 12.89L141.522 17.4361Z" fill="#0052C9"/>
<path d="M74.4946 21.377L69.6382 4.69772C70.8567 4.01429 72.2702 3.76197 73.6499 3.9816C75.0296 4.20122 76.2948 4.87995 77.2409 5.90794L77.846 6.8699L89.9172 38.9408H79.6924L74.4946 21.377Z" fill="url(#paint0_linear_1439_4349)"/>
<path d="M75.9376 26.0784L78.0477 33.3552H67.1247L69.3589 26.0784H75.9376Z" fill="url(#paint1_linear_1439_4349)"/>
<path d="M111.406 27.1954L109.017 36.7375C110.77 37.3031 112.668 37.2261 114.37 36.5203C114.728 36.3948 115.054 36.1902 115.323 35.9216C115.591 35.653 115.796 35.3273 115.921 34.9688L124.362 4.63565C123.615 4.19322 122.774 3.93567 121.907 3.88439C121.041 3.83311 120.175 3.98963 119.381 4.34089C118.675 4.56239 118.04 4.96569 117.539 5.51034C117.038 6.055 116.688 6.72187 116.526 7.44402L111.406 27.1954Z" fill="url(#paint2_linear_1439_4349)"/>
<path d="M141.507 4.07715V38.677H138.745C138.745 38.677 134.463 38.7857 133.532 36.2876C133.532 36.2876 132.616 35.2791 132.725 31.4002V10.5782C132.725 10.5782 132.539 7.25786 133.904 5.92351C133.904 5.92351 135.223 3.89094 139.102 4.10816L141.507 4.07715Z" fill="url(#paint3_linear_1439_4349)"/>
<path d="M141.522 17.4362V24.8837H152.88C153.867 24.8837 154.814 24.4914 155.513 23.793C156.211 23.0947 156.603 22.1476 156.603 21.16C156.603 20.1723 156.211 19.2252 155.513 18.5269C154.814 17.8285 153.867 17.4362 152.88 17.4362H141.522Z" fill="url(#paint4_linear_1439_4349)"/>
<path d="M100.483 38.677H92.3687L95.9682 8.34388C96.116 7.11397 96.7254 5.98608 97.673 5.18824C98.6206 4.3904 99.8358 3.98216 101.073 4.04606C102.126 4.04514 103.162 4.31211 104.083 4.82185L100.483 38.677Z" fill="url(#paint5_linear_1439_4349)"/>
<path d="M165.028 38.7081H161.243V6.43558C161.243 5.93355 161.442 5.45208 161.797 5.09709C162.152 4.7421 162.633 4.54267 163.135 4.54267C163.385 4.5406 163.632 4.58819 163.862 4.68259C164.093 4.77698 164.302 4.91631 164.479 5.0925C164.655 5.26868 164.794 5.47816 164.889 5.70876C164.983 5.93935 165.03 6.18642 165.028 6.43558V38.7081Z" fill="white"/>
<path d="M189.59 38.7081L173.515 11.4471V38.7392H169.683V6.94762C169.683 6.63049 169.746 6.31647 169.868 6.02368C169.989 5.73089 170.168 5.46507 170.393 5.24155C170.618 5.01803 170.885 4.84121 171.178 4.72127C171.472 4.60133 171.786 4.54062 172.104 4.54267C172.523 4.54247 172.934 4.65104 173.299 4.85773C173.663 5.06443 173.968 5.36219 174.183 5.72187L189.559 31.8192V6.43558C189.559 5.93355 189.758 5.45208 190.113 5.09709C190.468 4.7421 190.95 4.54267 191.452 4.54267C191.701 4.5406 191.948 4.58819 192.178 4.68259C192.409 4.77698 192.618 4.91631 192.795 5.0925C192.971 5.26868 193.11 5.47816 193.205 5.70876C193.299 5.93935 193.347 6.18642 193.344 6.43558V38.7081H189.59Z" fill="white"/>
<path d="M216.742 13.1073C216.308 13.0937 215.892 12.9326 215.562 12.6505C215.232 12.3684 215.008 11.9823 214.927 11.5557C214.291 8.88702 211.824 7.24237 207.991 7.24237C203.414 7.24237 200.839 9.63177 200.839 13.1538C200.839 16.3811 202.856 18.1809 206.734 19.0032L211.125 19.9186C217.099 21.1754 220.156 24.3561 220.156 29.5073C220.156 35.0464 216.013 39.2201 208.643 39.2201C201.273 39.2201 197.099 35.0464 197.099 29.5073V28.5919H200.839V29.5539C200.839 33.2621 203.724 35.9618 208.596 35.9618C213.468 35.9618 216.354 33.2621 216.354 29.5539C216.354 26.3732 214.353 24.0613 209.9 23.1459L205.509 22.2305C200.187 21.1444 197.053 18.2119 197.053 13.1538C197.053 8.09572 200.792 3.922 207.914 3.922C213.918 3.922 217.549 6.82344 218.542 10.7799C218.605 11.053 218.606 11.3367 218.544 11.61C218.482 11.8833 218.359 12.1391 218.185 12.3583C218.01 12.5775 217.788 12.7546 217.536 12.8762C217.283 12.9978 217.007 13.0609 216.727 13.0607L216.742 13.1073Z" fill="white"/>
<path d="M58.1293 50.1467V52.3228H56.2036V46.3916C56.1803 46.1676 56.1803 45.9418 56.2036 45.7177C56.2486 45.5554 56.3273 45.4045 56.4347 45.2748C56.5596 45.152 56.7112 45.0597 56.8776 45.0051C57.1081 44.9818 57.3404 44.9818 57.5709 45.0051H59.2655C59.6369 45.0033 60.0066 45.0552 60.3631 45.1592C60.6857 45.2541 60.9866 45.4111 61.2489 45.6214C61.4919 45.8393 61.6828 46.1092 61.8074 46.4109C61.9643 46.7683 62.0368 47.1571 62.0192 47.5471V47.7011C62.0345 48.0847 61.9621 48.4667 61.8074 48.818C61.6828 49.1197 61.4919 49.3896 61.2489 49.6076C60.9912 49.8249 60.6888 49.9827 60.3631 50.0697C60.0066 50.1737 59.6369 50.2256 59.2655 50.2238L58.1293 50.1467ZM58.1293 48.5484H59.2655C59.3985 48.5796 59.5369 48.5796 59.6699 48.5484C59.7854 48.4987 59.8901 48.4267 59.978 48.3366C60.1465 48.1457 60.236 47.8979 60.2283 47.6434C60.2484 47.5222 60.2484 47.3986 60.2283 47.2775C60.1872 47.1621 60.1215 47.0569 60.0357 46.9694C59.9543 46.8675 59.8483 46.788 59.7276 46.7383C59.5937 46.7164 59.4572 46.7164 59.3232 46.7383H58.553C58.5154 46.7252 58.4749 46.723 58.4361 46.7319C58.3973 46.7408 58.3618 46.7605 58.3337 46.7886C58.3056 46.8167 58.2859 46.8522 58.277 46.891C58.2681 46.9298 58.2703 46.9703 58.2834 47.0079L58.1293 48.5484Z" fill="white"/>
<path d="M62.7894 45.4866C62.7762 45.3561 62.7957 45.2245 62.8462 45.1034C62.8966 44.9824 62.9764 44.8759 63.0783 44.7934C63.2602 44.6376 63.4937 44.5552 63.733 44.5623C63.9782 44.5559 64.2174 44.6379 64.407 44.7934C64.5069 44.8768 64.5839 44.9841 64.6311 45.1053C64.6782 45.2265 64.6939 45.3577 64.6766 45.4866V52.3228H62.7509L62.7894 45.4866Z" fill="white"/>
<path d="M69.0864 52.3227V51.9375C68.9033 52.1128 68.6873 52.2503 68.4509 52.3419C68.2054 52.4366 67.9438 52.4823 67.6807 52.4767H67.4881C67.2836 52.5038 67.0764 52.5038 66.8719 52.4767C66.6461 52.4212 66.4356 52.3159 66.2557 52.1686C66.0572 52.0241 65.8983 51.8321 65.7935 51.6102C65.6567 51.3286 65.5906 51.018 65.601 50.7051C65.5908 50.4067 65.6501 50.11 65.7743 49.8385C65.8933 49.6144 66.0651 49.4227 66.275 49.2801C66.4858 49.1242 66.7295 49.0189 66.9875 48.972C67.2721 48.9094 67.5625 48.877 67.854 48.8757H68.7976C68.8129 48.7671 68.8129 48.6569 68.7976 48.5483C68.7489 48.4651 68.6833 48.3929 68.605 48.3365C68.5266 48.2754 68.4337 48.2356 68.3354 48.221H68.0273H67.7192H67.4111H67.1993L66.9875 48.3172C66.893 48.3435 66.7931 48.3435 66.6986 48.3172H66.429L66.1786 48.1825C66.0999 48.1188 66.0344 48.0403 65.9861 47.9514C65.9478 47.8667 65.928 47.7747 65.928 47.6818C65.928 47.5888 65.9478 47.4969 65.9861 47.4121C66.04 47.2308 66.1559 47.0741 66.3135 46.9693C66.4343 46.87 66.571 46.7919 66.7178 46.7382L67.1993 46.5841H67.7H68.2006C68.5187 46.5835 68.8357 46.6223 69.1442 46.6996C69.4319 46.7598 69.7019 46.8849 69.9337 47.0655C70.1761 47.2688 70.3673 47.526 70.4922 47.8166C70.6427 48.2096 70.7147 48.6283 70.704 49.049V52.3227H69.0864ZM68.7398 50.1466H67.8925C67.7462 50.1437 67.6034 50.1913 67.4881 50.2814C67.4438 50.3274 67.409 50.3817 67.3859 50.4412C67.3628 50.5007 67.3517 50.5642 67.3533 50.6281C67.3509 50.6891 67.3616 50.75 67.3849 50.8065C67.4082 50.863 67.4433 50.9138 67.4881 50.9554C67.5999 51.0359 67.7356 51.0766 67.8733 51.071H68.0081H68.2584L68.4895 50.9554C68.5646 50.9181 68.6254 50.8572 68.6628 50.7821C68.6907 50.701 68.6907 50.6129 68.6628 50.5318L68.7398 50.1466Z" fill="white"/>
<path d="M72.0905 48.2787H71.7824C71.6705 48.2893 71.5577 48.2759 71.4514 48.2394C71.3452 48.2028 71.2479 48.1441 71.1662 48.0669C71.0351 47.9186 70.9661 47.7255 70.9736 47.5277C70.9655 47.4381 70.9655 47.3478 70.9736 47.2581C71.0068 47.1689 71.0522 47.0847 71.1084 47.0078C71.1825 46.9286 71.2752 46.869 71.378 46.8345C71.4978 46.8017 71.6242 46.8017 71.7439 46.8345H72.052V45.8909C72.0208 45.7579 72.0208 45.6195 72.052 45.4865C72.1002 45.3756 72.1725 45.2769 72.2638 45.1976C72.3453 45.1182 72.4442 45.0588 72.5527 45.0243C72.6609 45.0044 72.7718 45.0044 72.8801 45.0243C72.9948 45.0053 73.1119 45.0053 73.2267 45.0243C73.3309 45.0677 73.4282 45.1261 73.5155 45.1976C73.6008 45.278 73.6667 45.3768 73.7081 45.4865C73.7393 45.6195 73.7393 45.7579 73.7081 45.8909V46.8345H74.2473C74.3736 46.8019 74.5061 46.8019 74.6324 46.8345C74.7271 46.874 74.8124 46.9331 74.8827 47.0078C74.9389 47.0847 74.9843 47.1689 75.0175 47.2581C75.0352 47.3471 75.0352 47.4387 75.0175 47.5277C75.0218 47.7218 74.9608 47.9117 74.8442 48.0669C74.7577 48.1426 74.6569 48.2003 74.5478 48.2367C74.4387 48.2731 74.3235 48.2874 74.2088 48.2787H73.6696V50.5703C73.6505 50.6127 73.6405 50.6586 73.6405 50.7051C73.6405 50.7516 73.6505 50.7976 73.6696 50.8399C73.7385 50.862 73.8125 50.862 73.8814 50.8399H74.6709C74.8177 50.8336 74.9617 50.8815 75.0753 50.9747C75.1856 51.0689 75.2604 51.198 75.2872 51.3406C75.3459 51.5089 75.3459 51.6922 75.2872 51.8605C75.2113 51.9974 75.1061 52.1158 74.979 52.2071L74.5939 52.3804C74.434 52.3993 74.2724 52.3993 74.1125 52.3804C73.8395 52.3914 73.5665 52.3589 73.3037 52.2842C73.0777 52.2293 72.867 52.124 72.6875 51.9761C72.5222 51.8146 72.3969 51.6168 72.3216 51.3983C72.2225 51.1139 72.1768 50.8136 72.1868 50.5125L72.0905 48.2787Z" fill="white"/>
<path d="M76.4233 52.3228V48.2789H76.1151C76.0033 48.2895 75.8904 48.276 75.7842 48.2395C75.6779 48.203 75.5806 48.1442 75.4989 48.0671C75.3678 47.9188 75.2989 47.7257 75.3063 47.5279C75.2956 47.4383 75.2956 47.3478 75.3063 47.2583C75.3318 47.1657 75.3779 47.0801 75.4411 47.0079C75.5076 46.9288 75.5941 46.869 75.6915 46.8346C75.818 46.8036 75.9501 46.8036 76.0767 46.8346H76.3848V46.642C76.3753 46.3221 76.4208 46.0029 76.5195 45.6985C76.6013 45.4674 76.7328 45.257 76.9047 45.0822C77.0853 44.9209 77.3039 44.8083 77.5401 44.7549C77.8285 44.6749 78.1267 44.636 78.426 44.6394H78.9844C79.1591 44.6899 79.3272 44.7609 79.4851 44.8512C79.6269 44.934 79.7357 45.0632 79.7932 45.217C79.8316 45.3752 79.8316 45.5403 79.7932 45.6985C79.7537 45.8405 79.6734 45.9677 79.5621 46.0644C79.5127 46.1161 79.4527 46.1565 79.3862 46.1831C79.3198 46.2097 79.2484 46.2217 79.177 46.2184H78.9844H78.7919H78.5222C78.4818 46.2161 78.4414 46.2236 78.4045 46.2404C78.3676 46.2572 78.3353 46.2827 78.3105 46.3147C78.2832 46.409 78.2832 46.5092 78.3105 46.6035V46.8539H78.8496C78.9638 46.853 79.0769 46.8746 79.1827 46.9176C79.2884 46.9606 79.3846 47.024 79.4658 47.1042C79.5291 47.1764 79.5752 47.262 79.6006 47.3545C79.6205 47.4433 79.6205 47.5354 79.6006 47.6241C79.6049 47.8182 79.5439 48.0081 79.4273 48.1633C79.3437 48.2376 79.2461 48.2945 79.1404 48.3309C79.0346 48.3672 78.9227 48.3822 78.8111 48.3751H78.2719V52.4191L76.4233 52.3228Z" fill="white"/>
<path d="M79.9858 49.126C79.9729 48.7033 80.0517 48.2829 80.2169 47.8936C80.3623 47.5941 80.5729 47.3309 80.8331 47.1233C81.0974 46.9366 81.39 46.7936 81.6996 46.6996C82.0084 46.6233 82.3252 46.5845 82.6433 46.5841C82.9549 46.5851 83.2652 46.6239 83.5675 46.6996C83.8803 46.7856 84.1742 46.9293 84.4341 47.1233C84.6952 47.3351 84.9112 47.597 85.0696 47.8936C85.2347 48.2829 85.3136 48.7033 85.3006 49.126V49.9733C85.3154 50.3961 85.2365 50.817 85.0696 51.2057C84.9167 51.5113 84.7 51.7806 84.4341 51.9953C84.1775 52.1905 83.882 52.3285 83.5675 52.3997C82.936 52.5628 82.2734 52.5628 81.6419 52.3997C81.3274 52.3285 81.0319 52.1905 80.7753 51.9953C80.5095 51.7806 80.2927 51.5113 80.1398 51.2057C79.9729 50.817 79.894 50.3961 79.9088 49.9733L79.9858 49.126ZM83.452 49.126C83.4734 48.9856 83.4734 48.8428 83.452 48.7024C83.399 48.605 83.3343 48.5145 83.2594 48.4328C83.1859 48.357 83.0925 48.3035 82.9899 48.2787H82.701H82.4121C82.3095 48.3035 82.2161 48.357 82.1426 48.4328C82.0677 48.5145 82.003 48.605 81.95 48.7024C81.9283 48.8428 81.9283 48.9856 81.95 49.126V50.1466C81.9281 50.2805 81.9281 50.4171 81.95 50.551C81.9981 50.6571 82.0632 50.7547 82.1426 50.8399C82.2207 50.9095 82.3125 50.9619 82.4121 50.9939H82.701H82.9899C83.0895 50.9619 83.1813 50.9095 83.2594 50.8399C83.3388 50.7547 83.4038 50.6571 83.452 50.551C83.4736 50.4171 83.4736 50.2806 83.452 50.1466V49.126Z" fill="white"/>
<path d="M86.225 52.3228V47.5086C86.2031 47.3747 86.2031 47.2381 86.225 47.1042C86.2731 46.9933 86.3455 46.8946 86.4368 46.8153C86.5211 46.7396 86.6192 46.6808 86.7257 46.642H87.0723C87.2489 46.636 87.4233 46.683 87.573 46.7768C87.7358 46.8591 87.865 46.9952 87.9389 47.162C88.1041 47.0057 88.2924 46.8758 88.4973 46.7768C88.706 46.6941 88.9276 46.6484 89.152 46.642H89.3638C89.4399 46.6247 89.5189 46.6247 89.5949 46.642C89.7657 46.7098 89.9037 46.8409 89.9801 47.0079C90.0714 47.1858 90.105 47.3878 90.0763 47.5857C90.0511 47.7855 89.9555 47.9698 89.8067 48.1056C89.6584 48.2366 89.4653 48.3056 89.2675 48.2981H88.8439C88.6247 48.3063 88.4145 48.3877 88.2469 48.5292C88.1067 48.6747 88.0245 48.8665 88.0158 49.0684V52.3035L86.225 52.3228Z" fill="white"/>
<path d="M90.5578 52.3228V47.5086C90.5266 47.3756 90.5266 47.2372 90.5578 47.1042C90.5992 46.9946 90.665 46.8957 90.7504 46.8153C90.8417 46.7394 90.9461 46.6807 91.0585 46.642C91.1915 46.5814 91.336 46.5499 91.4821 46.5499C91.6283 46.5499 91.7728 46.5814 91.9058 46.642C92.0582 46.7229 92.1799 46.8514 92.2524 47.0079C92.5933 46.6797 93.0502 46.4997 93.5234 46.5073C93.8002 46.5081 94.0744 46.5603 94.3321 46.6613C94.6044 46.7621 94.8441 46.9352 95.0254 47.162C95.218 46.9522 95.4548 46.7878 95.7186 46.6806C96.0237 46.5553 96.3518 46.4963 96.6814 46.5073C96.9632 46.5034 97.2435 46.549 97.5095 46.642C97.7715 46.7149 98.0103 46.8542 98.2027 47.0465C98.4152 47.2669 98.5791 47.5292 98.6842 47.8167C98.8094 48.2086 98.868 48.6187 98.8575 49.0299V52.2458H96.9318V48.9144C96.9533 48.7869 96.9533 48.6567 96.9318 48.5292C96.883 48.4339 96.8249 48.3436 96.7585 48.2596C96.6907 48.2005 96.6123 48.1548 96.5274 48.1248H96.2963H96.046C95.9611 48.1548 95.8827 48.2005 95.8149 48.2596C95.7485 48.3436 95.6904 48.4339 95.6416 48.5292C95.6201 48.6567 95.6201 48.7869 95.6416 48.9144V52.2458H93.8122V48.9144C93.8337 48.7869 93.8337 48.6567 93.8122 48.5292C93.7776 48.4264 93.7181 48.3337 93.6389 48.2596C93.5768 48.1929 93.4964 48.146 93.4078 48.1248H93.1767H92.9456C92.8608 48.1548 92.7824 48.2005 92.7145 48.2596C92.6437 48.3294 92.5909 48.4153 92.5605 48.5099C92.5035 48.624 92.4707 48.7485 92.4642 48.8758V52.2458L90.5578 52.3228Z" fill="white"/>
<path d="M102.131 48.6447C102.112 48.5558 102.112 48.464 102.131 48.3751C102.15 48.2837 102.189 48.1981 102.247 48.1248C102.32 48.0447 102.409 47.981 102.509 47.9378C102.608 47.8947 102.716 47.8731 102.824 47.8744H103.826V46.9116C103.813 46.7904 103.829 46.6679 103.872 46.5541C103.916 46.4403 103.986 46.3384 104.076 46.2569C104.24 46.1117 104.454 46.0358 104.673 46.045C104.779 46.0398 104.884 46.0559 104.983 46.0923C105.083 46.1287 105.174 46.1847 105.251 46.2569C105.345 46.3365 105.418 46.4375 105.465 46.5514C105.512 46.6653 105.531 46.7888 105.52 46.9116V47.8744H106.502C106.616 47.8433 106.736 47.8433 106.849 47.8744C106.941 47.9092 107.021 47.9693 107.08 48.0477C107.136 48.1246 107.182 48.2089 107.215 48.2981C107.224 48.3877 107.224 48.478 107.215 48.5676C107.224 48.6637 107.224 48.7604 107.215 48.8565C107.182 48.9457 107.136 49.03 107.08 49.1068C107.012 49.1812 106.934 49.2459 106.849 49.2994C106.735 49.3213 106.617 49.3213 106.502 49.2994H105.482V50.2623C105.489 50.3847 105.469 50.5072 105.422 50.6207C105.376 50.7341 105.304 50.8354 105.212 50.917C105.051 51.0544 104.846 51.1295 104.635 51.1288C104.417 51.1291 104.206 51.0543 104.038 50.917C103.948 50.8345 103.879 50.7325 103.836 50.6189C103.792 50.5053 103.776 50.3833 103.787 50.2623V49.2994H102.786C102.671 49.3213 102.554 49.3213 102.439 49.2994C102.354 49.2459 102.276 49.1812 102.208 49.1068C102.151 49.0335 102.111 48.9478 102.093 48.8565C102.095 48.7844 102.108 48.7131 102.131 48.6447Z" fill="white"/>
<path d="M112.318 49.5691C112.313 49.7617 112.353 49.9527 112.433 50.1275C112.484 50.2848 112.577 50.4249 112.703 50.5319C112.828 50.6403 112.972 50.7251 113.127 50.7822C113.28 50.81 113.436 50.81 113.589 50.7822H114.147C114.293 50.7517 114.435 50.7066 114.571 50.6475L114.802 50.5319H115.052C115.196 50.4835 115.352 50.4835 115.495 50.5319C115.641 50.5955 115.762 50.7034 115.842 50.8401C115.884 50.9307 115.905 51.0292 115.905 51.1289C115.905 51.2286 115.884 51.3271 115.842 51.4177C115.789 51.6099 115.674 51.7791 115.515 51.8992C115.239 52.1071 114.925 52.2577 114.59 52.3421C114.238 52.4342 113.876 52.4795 113.512 52.4768C113.121 52.4827 112.732 52.4308 112.356 52.3228C111.986 52.2271 111.638 52.0568 111.336 51.8221C111.039 51.5881 110.796 51.2925 110.623 50.9556C110.438 50.5443 110.346 50.0971 110.354 49.6461V47.7204C110.346 47.2694 110.438 46.8222 110.623 46.4109C110.796 46.074 111.039 45.7784 111.336 45.5444C111.638 45.3098 111.986 45.1394 112.356 45.0437C112.732 44.9358 113.121 44.8838 113.512 44.8896C113.875 44.8836 114.237 44.9224 114.59 45.0052C114.852 45.068 115.1 45.1791 115.322 45.3326C115.507 45.4515 115.649 45.6271 115.726 45.8333C115.772 45.9261 115.796 46.0282 115.796 46.1317C115.796 46.2353 115.772 46.3374 115.726 46.4302C115.645 46.5773 115.516 46.6925 115.361 46.7576C115.212 46.8137 115.047 46.8137 114.898 46.7576H114.61L114.378 46.642H114.051H113.57C113.417 46.6142 113.26 46.6142 113.107 46.642C112.952 46.6992 112.809 46.784 112.684 46.8924C112.558 46.9994 112.465 47.1394 112.414 47.2967C112.333 47.4715 112.294 47.6626 112.299 47.8552L112.318 49.5691Z" fill="white"/>
<path d="M116.574 49.126C116.567 48.7019 116.652 48.2814 116.824 47.8936C116.97 47.5941 117.18 47.3309 117.44 47.1233C117.705 46.9366 117.997 46.7936 118.307 46.6996C118.616 46.6233 118.932 46.5845 119.25 46.5841C119.562 46.5851 119.872 46.6239 120.175 46.6996C120.486 46.7895 120.779 46.9329 121.041 47.1233C121.302 47.3351 121.518 47.597 121.677 47.8936C121.842 48.2829 121.921 48.7033 121.908 49.126V49.9733C121.923 50.3962 121.844 50.817 121.677 51.2057C121.534 51.5063 121.325 51.7703 121.064 51.9772C120.804 52.1842 120.5 52.3287 120.175 52.3997C119.872 52.4755 119.562 52.5143 119.25 52.5152C118.932 52.5136 118.616 52.4748 118.307 52.3997C118 52.3248 117.711 52.1871 117.46 51.9953C117.189 51.7858 116.971 51.5153 116.824 51.2057C116.65 50.8187 116.564 50.3977 116.574 49.9733V49.126ZM120.059 49.126C120.09 48.9865 120.09 48.8419 120.059 48.7024C120.02 48.6018 119.961 48.5102 119.886 48.4328C119.812 48.357 119.719 48.3035 119.616 48.2787H119.327H119.039C118.934 48.2989 118.839 48.3531 118.769 48.4328C118.694 48.5145 118.629 48.605 118.576 48.7024C118.555 48.8428 118.555 48.9856 118.576 49.126V50.1466C118.555 50.2805 118.555 50.4171 118.576 50.551C118.625 50.6571 118.69 50.7547 118.769 50.8399C118.844 50.9134 118.937 50.9664 119.039 50.9939H119.327H119.616C119.716 50.9619 119.808 50.9095 119.886 50.8399C119.965 50.7584 120.025 50.6595 120.059 50.551C120.09 50.418 120.09 50.2796 120.059 50.1466V49.126Z" fill="white"/>
<path d="M122.813 52.3227V47.5085C122.782 47.3755 122.782 47.2371 122.813 47.1041C122.861 46.9932 122.933 46.8945 123.025 46.8152C123.106 46.7358 123.205 46.6765 123.314 46.6419H123.66C123.837 46.6382 124.01 46.685 124.161 46.7767C124.314 46.863 124.441 46.9896 124.527 47.1426C124.703 46.9766 124.913 46.8517 125.143 46.7767C125.369 46.6842 125.611 46.6383 125.856 46.6419C126.136 46.6398 126.415 46.6787 126.684 46.7575C126.932 46.8452 127.156 46.9904 127.338 47.1811C127.549 47.3961 127.701 47.6612 127.781 47.9514C127.906 48.3433 127.965 48.7533 127.955 49.1646V52.3805H126.029V49.049C126.051 48.9216 126.051 48.7914 126.029 48.6639C125.994 48.5611 125.935 48.4684 125.856 48.3943C125.788 48.3352 125.709 48.2894 125.624 48.2595H125.374H125.124C125.039 48.2894 124.96 48.3352 124.893 48.3943C124.813 48.4724 124.748 48.5636 124.7 48.6639C124.679 48.7914 124.679 48.9216 124.7 49.049V52.3805L122.813 52.3227Z" fill="white"/>
<path d="M129.514 48.2787H129.206C129.094 48.2869 128.982 48.2724 128.876 48.236C128.77 48.1996 128.673 48.1421 128.59 48.0669C128.467 47.9142 128.399 47.7241 128.397 47.5277C128.381 47.4386 128.381 47.3473 128.397 47.2581C128.415 47.1626 128.462 47.075 128.532 47.0078C128.595 46.9244 128.683 46.8636 128.783 46.8345C128.903 46.8035 129.028 46.8035 129.148 46.8345H129.457V45.8909C129.425 45.7579 129.425 45.6195 129.457 45.4865C129.505 45.3756 129.577 45.2769 129.668 45.1976C129.75 45.1182 129.849 45.0588 129.957 45.0243C130.065 45.0044 130.176 45.0044 130.285 45.0243C130.399 45.0053 130.516 45.0053 130.631 45.0243C130.735 45.0677 130.833 45.1261 130.92 45.1976C131.005 45.278 131.071 45.3768 131.113 45.4865C131.176 45.6117 131.209 45.7504 131.209 45.8909V46.8345H131.748C131.868 46.8035 131.994 46.8035 132.114 46.8345C132.211 46.8688 132.298 46.9287 132.364 47.0078C132.428 47.08 132.474 47.1656 132.499 47.2581C132.515 47.3473 132.515 47.4386 132.499 47.5277C132.498 47.7241 132.43 47.9142 132.307 48.0669C132.223 48.1421 132.126 48.1996 132.02 48.236C131.914 48.2724 131.802 48.2869 131.69 48.2787H131.151V50.5703C131.151 50.7051 131.151 50.8014 131.151 50.8399C131.22 50.8587 131.294 50.8587 131.363 50.8399H131.767C131.914 50.8336 132.058 50.8815 132.172 50.9747C132.288 51.0642 132.364 51.1956 132.384 51.3406C132.442 51.5089 132.442 51.6922 132.384 51.8605C132.309 51.9926 132.211 52.11 132.095 52.2071L131.69 52.3804C131.53 52.4006 131.369 52.4006 131.209 52.3804C130.936 52.3914 130.663 52.3589 130.4 52.2842C130.174 52.2293 129.963 52.124 129.784 51.9761C129.619 51.8146 129.493 51.6168 129.418 51.3983C129.319 51.1139 129.273 50.8136 129.283 50.5125L129.514 48.2787Z" fill="white"/>
<path d="M135.946 52.4768C135.609 52.4763 135.273 52.4375 134.945 52.3612C134.62 52.2756 134.313 52.1321 134.04 51.9376C133.752 51.7356 133.52 51.4639 133.366 51.148C133.185 50.77 133.099 50.3536 133.115 49.9349V49.1261C133.099 48.7074 133.185 48.291 133.366 47.9129C133.501 47.6142 133.703 47.351 133.957 47.1438C134.211 46.9366 134.51 46.7912 134.829 46.719C135.122 46.6287 135.428 46.5832 135.734 46.5842C136.046 46.5823 136.357 46.6211 136.659 46.6997C136.965 46.781 137.249 46.9327 137.487 47.1426C137.744 47.3865 137.936 47.6911 138.045 48.0284C138.214 48.5041 138.292 49.0069 138.276 49.5112C138.276 49.6075 138.276 49.6845 138.276 49.8001C138.276 49.9156 138.276 50.0119 138.276 50.0889H135.003C134.988 50.2307 135.022 50.3731 135.099 50.4933C135.162 50.5951 135.247 50.6808 135.349 50.7437C135.455 50.8144 135.572 50.8665 135.696 50.8977H136.042H136.562H136.928H137.14C137.216 50.8782 137.295 50.8782 137.371 50.8977C137.511 50.8681 137.655 50.8681 137.795 50.8977C137.862 50.925 137.923 50.9666 137.973 51.0198C138.023 51.073 138.061 51.1365 138.084 51.2058C138.126 51.303 138.148 51.4079 138.148 51.5139C138.148 51.6199 138.126 51.7248 138.084 51.822C137.974 52.0215 137.806 52.1828 137.602 52.2842C137.514 52.3443 137.416 52.3898 137.313 52.419L136.928 52.5345L136.485 52.6308L135.946 52.4768ZM135.734 48.0862C135.639 48.0675 135.541 48.0675 135.445 48.0862C135.353 48.1116 135.267 48.1577 135.195 48.221C135.111 48.2875 135.045 48.3735 135.003 48.4714C134.979 48.5987 134.979 48.7291 135.003 48.8565H136.543C136.565 48.729 136.565 48.5988 136.543 48.4714C136.506 48.3751 136.447 48.2892 136.37 48.221C136.305 48.158 136.226 48.1117 136.139 48.0862C136.006 48.0511 135.867 48.0511 135.734 48.0862Z" fill="white"/>
<path d="M139.104 52.3228V47.5086C139.073 47.3756 139.073 47.2372 139.104 47.1042C139.146 46.9945 139.211 46.8957 139.297 46.8153C139.388 46.7394 139.493 46.6806 139.605 46.642C139.738 46.5813 139.882 46.5499 140.029 46.5499C140.175 46.5499 140.319 46.5813 140.452 46.642C140.605 46.7228 140.726 46.8513 140.799 47.0079C140.978 46.8461 141.187 46.7217 141.415 46.642C141.648 46.5499 141.896 46.5042 142.147 46.5072C142.421 46.505 142.693 46.544 142.956 46.6228C143.21 46.7104 143.44 46.8554 143.63 47.0464C143.827 47.2712 143.977 47.5331 144.072 47.8167C144.198 48.2085 144.256 48.6186 144.246 49.0299V52.2457H142.32V48.9143C142.342 48.7869 142.342 48.6566 142.32 48.5292C142.271 48.4338 142.213 48.3435 142.147 48.2595C142.075 48.1963 141.989 48.1502 141.896 48.1248H141.665H141.415C141.322 48.1502 141.237 48.1963 141.165 48.2595C141.085 48.3337 141.026 48.4263 140.991 48.5292C140.969 48.6566 140.969 48.7869 140.991 48.9143V52.2457L139.104 52.3228Z" fill="white"/>
<path d="M145.921 48.2788H145.613C145.501 48.2894 145.388 48.2759 145.282 48.2394C145.176 48.2029 145.079 48.1441 144.997 48.067C144.866 47.9187 144.797 47.7256 144.804 47.5278C144.796 47.4381 144.796 47.3478 144.804 47.2582C144.838 47.1689 144.883 47.0847 144.939 47.0078C145.009 46.9331 145.095 46.8741 145.189 46.8345C145.316 46.8035 145.448 46.8035 145.575 46.8345H145.921V45.8909C145.89 45.758 145.89 45.6195 145.921 45.4865C145.963 45.3768 146.028 45.278 146.114 45.1977C146.205 45.1217 146.31 45.063 146.422 45.0244C146.637 44.9728 146.861 44.9728 147.077 45.0244C147.185 45.0589 147.284 45.1182 147.365 45.1977C147.457 45.2769 147.529 45.3756 147.577 45.4865C147.608 45.6195 147.608 45.758 147.577 45.8909V46.8345H148.116C148.243 46.8035 148.375 46.8035 148.502 46.8345C148.593 46.8693 148.674 46.9294 148.733 47.0078C148.802 47.0789 148.854 47.1644 148.887 47.2582C148.895 47.3478 148.895 47.4381 148.887 47.5278C148.894 47.7256 148.825 47.9187 148.694 48.067C148.612 48.1441 148.515 48.2029 148.409 48.2394C148.303 48.2759 148.19 48.2894 148.078 48.2788H147.539V50.5703C147.52 50.6127 147.51 50.6587 147.51 50.7052C147.51 50.7516 147.52 50.7976 147.539 50.84C147.602 50.8582 147.668 50.8582 147.731 50.84H148.136C148.282 50.8336 148.426 50.8815 148.54 50.9747C148.655 51.068 148.736 51.1966 148.771 51.3406C148.821 51.5103 148.821 51.6908 148.771 51.8606C148.695 51.9975 148.59 52.1158 148.463 52.2072L148.078 52.3805H147.596C147.317 52.39 147.038 52.3576 146.768 52.2842C146.548 52.2292 146.344 52.1237 146.172 51.9761C146 51.8158 145.868 51.618 145.786 51.3984C145.704 51.1105 145.665 50.812 145.671 50.5126L145.921 48.2788Z" fill="white"/>
<path d="M151.294 48.3366C151.294 48.4521 151.294 48.5291 151.486 48.5869C151.724 48.667 151.969 48.725 152.218 48.7602H152.411H152.565C153.047 48.8411 153.481 49.1028 153.778 49.492C153.916 49.681 154.013 49.8969 154.063 50.1257C154.113 50.3546 154.114 50.5913 154.067 50.8207C154.039 51.0743 153.954 51.3182 153.816 51.5332C153.669 51.7263 153.486 51.8896 153.277 52.0146C153.039 52.1534 152.778 52.251 152.507 52.3035C152.211 52.3756 151.907 52.4081 151.602 52.3998H151.121C150.954 52.4198 150.786 52.4198 150.62 52.3998C150.453 52.3698 150.291 52.318 150.138 52.2457C149.992 52.192 149.855 52.1139 149.734 52.0146C149.58 51.8819 149.466 51.7084 149.407 51.5139C149.378 51.4123 149.373 51.3054 149.393 51.2017C149.413 51.098 149.457 51.0005 149.522 50.917C149.577 50.8181 149.666 50.7428 149.773 50.7052C149.881 50.6853 149.992 50.6853 150.1 50.7052C150.213 50.6697 150.334 50.6697 150.447 50.7052L150.697 50.84C150.828 50.9154 150.971 50.9675 151.121 50.994H151.66C151.801 50.9986 151.94 50.9654 152.064 50.8978C152.108 50.874 152.146 50.841 152.176 50.8011C152.206 50.7612 152.227 50.7153 152.237 50.6666C152.237 50.5703 152.237 50.4741 151.949 50.4163C151.678 50.327 151.401 50.2562 151.121 50.2045H150.928H150.735C150.427 50.1274 150.143 49.9753 149.907 49.7616C149.714 49.5975 149.568 49.3848 149.484 49.1454C149.394 48.9192 149.361 48.6747 149.387 48.4329C149.422 48.2008 149.487 47.9742 149.58 47.7589C149.668 47.5697 149.792 47.3996 149.946 47.2582C150.087 47.1088 150.257 46.9907 150.447 46.9116C150.647 46.8158 150.862 46.7509 151.082 46.719C151.306 46.6895 151.532 46.6895 151.756 46.719C152.073 46.7174 152.389 46.7496 152.7 46.8153C152.922 46.87 153.135 46.9542 153.335 47.0656C153.522 47.1591 153.676 47.3068 153.778 47.4893C153.821 47.5795 153.843 47.6782 153.843 47.7781C153.843 47.878 153.821 47.9767 153.778 48.067C153.761 48.1435 153.728 48.2155 153.682 48.2786C153.636 48.3416 153.576 48.3942 153.508 48.4329C153.374 48.5113 153.221 48.5513 153.065 48.5484H152.854C152.797 48.5623 152.737 48.5623 152.68 48.5484C152.618 48.5013 152.545 48.4684 152.468 48.4521H152.218H151.949H151.698C151.576 48.4522 151.456 48.4855 151.352 48.5484C151.352 48.5484 151.294 48.2595 151.294 48.3366Z" fill="white"/>
<path d="M157.032 48.6447C157.023 48.5551 157.023 48.4647 157.032 48.3751C157.066 48.2859 157.111 48.2017 157.167 48.1248C157.226 48.0464 157.306 47.9863 157.398 47.9515C157.512 47.9204 157.631 47.9204 157.745 47.9515H158.727V46.9887C158.718 46.8679 158.736 46.7466 158.779 46.6335C158.823 46.5204 158.89 46.4181 158.977 46.3339C159.146 46.1962 159.357 46.1211 159.574 46.1211C159.792 46.1211 160.003 46.1962 160.171 46.3339C160.262 46.4154 160.332 46.5173 160.375 46.6311C160.419 46.745 160.435 46.8675 160.422 46.9887V47.9515H161.423C161.536 47.9204 161.656 47.9204 161.77 47.9515C161.853 47.9921 161.925 48.0514 161.981 48.1248C162.045 48.197 162.091 48.2826 162.116 48.3751C162.135 48.464 162.135 48.5558 162.116 48.6447C162.135 48.7401 162.135 48.8382 162.116 48.9336C162.091 49.0261 162.045 49.1117 161.981 49.1839C161.918 49.2627 161.839 49.3281 161.75 49.3765C161.642 49.3983 161.531 49.3983 161.423 49.3765H160.422V50.3393C160.433 50.4604 160.416 50.5824 160.373 50.696C160.33 50.8096 160.26 50.9116 160.171 50.9941C160.003 51.1317 159.792 51.2069 159.574 51.2069C159.357 51.2069 159.146 51.1317 158.977 50.9941C158.891 50.9091 158.824 50.8068 158.781 50.6938C158.738 50.5809 158.72 50.46 158.727 50.3393V49.3765H157.745C157.63 49.3984 157.513 49.3984 157.398 49.3765C157.309 49.3281 157.231 49.2627 157.167 49.1839C157.111 49.107 157.066 49.0228 157.032 48.9336C157.023 48.8375 157.023 48.7408 157.032 48.6447Z" fill="white"/>
<path d="M167.238 49.5691C167.227 49.7602 167.26 49.9512 167.335 50.1275C167.401 50.2772 167.496 50.4122 167.615 50.5246C167.734 50.6371 167.875 50.7246 168.028 50.7822C168.187 50.8115 168.35 50.8115 168.509 50.7822H169.068L169.472 50.6475L169.703 50.5319H169.954C170.104 50.482 170.266 50.482 170.416 50.5319C170.559 50.5913 170.675 50.7009 170.743 50.8401C170.8 50.9235 170.839 51.0184 170.855 51.1182C170.872 51.218 170.867 51.3202 170.839 51.4177C170.779 51.6066 170.666 51.7739 170.512 51.8992C170.237 52.1071 169.922 52.2577 169.588 52.3421C169.236 52.4331 168.873 52.4784 168.509 52.4768C168.112 52.4837 167.716 52.4318 167.335 52.3228C166.97 52.2273 166.629 52.0567 166.333 51.8221C166.03 51.5893 165.78 51.2937 165.602 50.9556C165.416 50.5443 165.324 50.0971 165.332 49.6461V47.7204C165.324 47.2694 165.416 46.8222 165.602 46.4109C165.78 46.0728 166.03 45.7773 166.333 45.5444C166.629 45.3098 166.97 45.1392 167.335 45.0437C167.716 44.9347 168.112 44.8828 168.509 44.8896C168.872 44.8846 169.234 44.9234 169.588 45.0052C169.849 45.0719 170.096 45.1827 170.32 45.3326C170.505 45.4465 170.642 45.6247 170.705 45.8333C170.747 45.9272 170.768 46.0289 170.768 46.1317C170.768 46.2346 170.747 46.3363 170.705 46.4302C170.616 46.5786 170.48 46.6936 170.32 46.7576C170.171 46.8156 170.006 46.8156 169.857 46.7576H169.588L169.357 46.642H169.01H168.548C168.389 46.6127 168.226 46.6127 168.066 46.642C167.913 46.6996 167.773 46.7872 167.654 46.8997C167.535 47.0121 167.44 47.147 167.373 47.2967C167.299 47.4731 167.266 47.6641 167.277 47.8552L167.238 49.5691Z" fill="white"/>
<path d="M171.494 49.1262C171.481 48.7035 171.56 48.283 171.725 47.8937C171.877 47.593 172.094 47.3299 172.361 47.1235C172.616 46.9333 172.903 46.7899 173.208 46.6998C173.84 46.5367 174.502 46.5367 175.134 46.6998C175.439 46.7899 175.726 46.9333 175.981 47.1235C176.252 47.3248 176.47 47.5892 176.617 47.8937C176.788 48.2815 176.874 48.7021 176.867 49.1262V49.9735C176.876 50.3978 176.791 50.8189 176.617 51.2059C176.479 51.5211 176.26 51.7937 175.981 51.9954C175.73 52.1873 175.441 52.325 175.134 52.3999C174.825 52.475 174.508 52.5138 174.19 52.5154C173.879 52.5144 173.568 52.4756 173.266 52.3999C172.954 52.3211 172.66 52.1838 172.399 51.9954C172.134 51.7848 171.923 51.5142 171.783 51.2059C171.6 50.8218 171.514 50.3986 171.533 49.9735L171.494 49.1262ZM174.98 49.1262C175.011 48.9867 175.011 48.8421 174.98 48.7025C174.927 48.6052 174.862 48.5147 174.787 48.433C174.721 48.3577 174.634 48.304 174.537 48.2789C174.435 48.2605 174.331 48.2605 174.229 48.2789H173.94C173.837 48.3037 173.744 48.3572 173.67 48.433C173.595 48.5104 173.536 48.602 173.497 48.7025C173.466 48.8421 173.466 48.9867 173.497 49.1262V50.1468C173.466 50.2798 173.466 50.4182 173.497 50.5512C173.531 50.6596 173.591 50.7586 173.67 50.8401C173.748 50.9096 173.84 50.9621 173.94 50.9941H174.229C174.331 51.0125 174.435 51.0125 174.537 50.9941C174.631 50.9618 174.716 50.9092 174.787 50.8401C174.866 50.7548 174.932 50.6572 174.98 50.5512C175.011 50.4182 175.011 50.2798 174.98 50.1468V49.1262Z" fill="white"/>
<path d="M177.656 52.3228V47.5086C177.625 47.3756 177.625 47.2372 177.656 47.1042C177.698 46.9945 177.764 46.8957 177.849 46.8153C177.94 46.7394 178.045 46.6807 178.157 46.642C178.29 46.5813 178.435 46.5499 178.581 46.5499C178.727 46.5499 178.871 46.5813 179.004 46.642C179.157 46.7228 179.278 46.8514 179.351 47.0079C179.692 46.6797 180.149 46.4997 180.622 46.5073C180.899 46.5081 181.173 46.5603 181.431 46.6613C181.474 46.809 181.564 46.9386 181.687 47.0309C181.811 47.1231 181.96 47.173 182.114 47.173C182.268 47.173 182.418 47.1231 182.541 47.0309C182.665 46.9386 182.755 46.809 182.798 46.6613C183.11 46.5377 183.444 46.4788 183.78 46.488C184.062 46.4841 184.342 46.5298 184.608 46.6228C184.87 46.6957 185.109 46.8349 185.301 47.0272C185.514 47.2476 185.678 47.5099 185.783 47.7974C185.908 48.1893 185.967 48.5994 185.956 49.0106V52.2265H184.03V48.8951C184.061 48.7686 184.061 48.6364 184.03 48.5099C183.995 48.4119 183.943 48.3207 183.876 48.2404C183.808 48.1813 183.73 48.1355 183.645 48.1056H183.414H183.164C183.079 48.1355 183.001 48.1813 182.933 48.2404C182.866 48.3244 182.808 48.4146 182.759 48.5099C182.738 48.6374 182.738 48.7676 182.759 48.8951V52.2265H180.93V48.8951C180.952 48.7676 180.952 48.6374 180.93 48.5099C180.895 48.4071 180.836 48.3145 180.757 48.2404C180.692 48.1774 180.612 48.1311 180.526 48.1056H180.295H180.063C179.979 48.1355 179.9 48.1813 179.832 48.2404C179.761 48.3137 179.703 48.3983 179.659 48.4907C179.644 48.6122 179.644 48.735 179.659 48.8565V52.2265L177.656 52.3228Z" fill="white"/>
<path d="M186.938 52.3227V47.5085C186.916 47.3745 186.916 47.238 186.938 47.1041C186.993 46.997 187.064 46.8994 187.15 46.8152L187.439 46.6419H187.785C187.962 46.6359 188.136 46.6828 188.286 46.7767C188.366 46.8108 188.438 46.8609 188.497 46.9238C188.557 46.9867 188.603 47.0612 188.633 47.1426C188.986 46.8216 189.446 46.6431 189.923 46.6419C190.2 46.6427 190.474 46.6949 190.732 46.796C190.995 46.9029 191.227 47.0752 191.406 47.2966C191.598 47.0868 191.835 46.9224 192.099 46.8152C192.685 46.6112 193.323 46.6112 193.909 46.8152C194.166 46.8998 194.402 47.0376 194.602 47.2196C194.809 47.4411 194.966 47.7035 195.065 47.9899C195.206 48.3781 195.271 48.7901 195.257 49.2031V52.4189H193.331V49.0875C193.353 48.9601 193.353 48.8298 193.331 48.7024C193.297 48.5995 193.237 48.5069 193.158 48.4328C193.096 48.3661 193.016 48.3192 192.927 48.298H192.696H192.465C192.376 48.3192 192.296 48.3661 192.234 48.4328C192.161 48.5119 192.102 48.6031 192.06 48.7024C192.039 48.8298 192.039 48.96 192.06 49.0875V52.4189H190.212V49.0875C190.233 48.96 190.233 48.8298 190.212 48.7024C190.177 48.5995 190.118 48.5069 190.039 48.4328C189.971 48.3737 189.892 48.3279 189.807 48.298H189.576H189.345C189.258 48.3235 189.179 48.3698 189.114 48.4328C189.034 48.514 188.97 48.6101 188.928 48.7159C188.885 48.8216 188.863 48.9348 188.864 49.049V52.4189L186.938 52.3227Z" fill="white"/>
<path d="M198.28 52.4767C198.007 52.4789 197.734 52.44 197.472 52.3612C197.217 52.2838 196.986 52.145 196.798 51.9568C196.6 51.732 196.45 51.4702 196.355 51.1865C196.246 50.7915 196.194 50.383 196.201 49.9734V47.5085C196.183 47.3796 196.199 47.2484 196.246 47.1271C196.293 47.0059 196.37 46.8986 196.47 46.8152C196.66 46.6597 196.899 46.5777 197.144 46.5841C197.384 46.5771 197.617 46.6594 197.799 46.8152C197.901 46.8977 197.981 47.0043 198.031 47.1253C198.082 47.2464 198.101 47.378 198.088 47.5085V50.0889C198.065 50.2162 198.065 50.3467 198.088 50.474C198.136 50.5686 198.201 50.6534 198.28 50.7243C198.341 50.7973 198.421 50.8509 198.511 50.8784H198.762H198.993C199.076 50.8452 199.154 50.7997 199.224 50.7436C199.307 50.6811 199.368 50.5933 199.397 50.4933C199.454 50.3792 199.487 50.2547 199.494 50.1274V47.4892C199.48 47.3634 199.497 47.2361 199.544 47.1185C199.591 47.0009 199.666 46.8967 199.763 46.8152C199.948 46.6651 200.18 46.5833 200.418 46.5833C200.656 46.5833 200.887 46.6651 201.073 46.8152C201.173 46.8947 201.252 46.9979 201.302 47.1156C201.353 47.2333 201.373 47.3617 201.362 47.4892V52.3227H199.898L199.782 51.7257C199.622 51.9703 199.395 52.164 199.128 52.2842C198.864 52.4121 198.574 52.4779 198.28 52.4767Z" fill="white"/>
<path d="M202.324 52.3227V47.5085C202.302 47.3745 202.302 47.238 202.324 47.1041C202.379 46.997 202.45 46.8994 202.536 46.8152C202.62 46.7395 202.719 46.6806 202.825 46.6419H203.172C203.348 46.6359 203.523 46.6828 203.672 46.7767C203.834 46.8515 203.963 46.9811 204.038 47.1426C204.217 46.9808 204.427 46.8564 204.654 46.7767C204.881 46.687 205.123 46.6413 205.367 46.6419C205.647 46.6383 205.926 46.6773 206.195 46.7574C206.447 46.8501 206.676 46.9944 206.869 47.1811C207.066 47.4059 207.217 47.6678 207.312 47.9514C207.42 48.3465 207.472 48.7549 207.466 49.1645V52.3804H205.54V49.049C205.571 48.9225 205.571 48.7904 205.54 48.6639C205.506 48.561 205.446 48.4684 205.367 48.3942C205.305 48.3275 205.224 48.2806 205.136 48.2594H204.885H204.635C204.55 48.2894 204.472 48.3351 204.404 48.3942C204.325 48.4684 204.265 48.561 204.231 48.6639C204.2 48.7904 204.2 48.9225 204.231 49.049V52.3804L202.324 52.3227Z" fill="white"/>
<path d="M208.467 45.4096C208.455 45.2876 208.475 45.1645 208.526 45.0528C208.577 44.9412 208.656 44.845 208.756 44.7741C208.954 44.6357 209.189 44.5615 209.43 44.5615C209.671 44.5615 209.907 44.6357 210.104 44.7741C210.204 44.845 210.284 44.9412 210.334 45.0528C210.385 45.1645 210.405 45.2876 210.393 45.4096C210.417 45.5369 210.417 45.6674 210.393 45.7947C210.344 45.8993 210.271 45.9915 210.181 46.0643C210.089 46.1345 209.984 46.1868 209.873 46.2183H209.507H209.141C209.03 46.1868 208.925 46.1345 208.833 46.0643C208.743 45.9915 208.671 45.8993 208.621 45.7947C208.545 45.678 208.492 45.547 208.467 45.4096ZM208.467 47.5663C208.459 47.4382 208.479 47.3098 208.526 47.1901C208.572 47.0704 208.644 46.9622 208.737 46.8731C208.934 46.7347 209.17 46.6605 209.411 46.6605C209.652 46.6605 209.887 46.7347 210.085 46.8731C210.177 46.9622 210.249 47.0704 210.296 47.1901C210.343 47.3098 210.362 47.4382 210.354 47.5663V52.3228H208.429L208.467 47.5663Z" fill="white"/>
<path d="M211.991 48.2788H211.683C211.571 48.287 211.459 48.2725 211.353 48.2361C211.247 48.1997 211.15 48.1422 211.067 48.067C210.943 47.9143 210.876 47.7242 210.874 47.5278C210.858 47.4387 210.858 47.3473 210.874 47.2582C210.892 47.1627 210.939 47.0751 211.009 47.0079C211.072 46.9245 211.159 46.8637 211.259 46.8346C211.379 46.8036 211.505 46.8036 211.625 46.8346H211.933V45.891C211.902 45.758 211.902 45.6195 211.933 45.4866C211.982 45.3756 212.054 45.277 212.145 45.1977C212.227 45.1183 212.326 45.0589 212.434 45.0244C212.542 45.0057 212.653 45.0057 212.762 45.0244C212.876 45.0054 212.993 45.0054 213.108 45.0244L213.397 45.1977C213.482 45.2781 213.548 45.3769 213.59 45.4866C213.653 45.6118 213.686 45.7505 213.686 45.891V46.8346H214.225C214.345 46.8036 214.471 46.8036 214.591 46.8346C214.688 46.8689 214.775 46.9287 214.841 47.0079C214.905 47.0801 214.951 47.1657 214.976 47.2582C214.992 47.3473 214.992 47.4387 214.976 47.5278C214.975 47.7242 214.907 47.9143 214.784 48.067C214.7 48.1422 214.603 48.1997 214.497 48.2361C214.391 48.2725 214.279 48.287 214.167 48.2788H213.628V50.5704C213.628 50.7052 213.628 50.8015 213.628 50.84C213.697 50.8588 213.771 50.8588 213.84 50.84H214.244C214.391 50.8336 214.535 50.8816 214.649 50.9748C214.765 51.0642 214.841 51.1956 214.86 51.3406C214.919 51.509 214.919 51.6923 214.86 51.8606C214.786 51.9927 214.688 52.1101 214.572 52.2072L214.167 52.3805C214.007 52.4007 213.846 52.4007 213.686 52.3805C213.413 52.3915 213.14 52.359 212.877 52.2843C212.651 52.2294 212.44 52.1241 212.261 51.9762C212.096 51.8147 211.97 51.6169 211.895 51.3984C211.796 51.114 211.75 50.8137 211.76 50.5126L211.991 48.2788Z" fill="white"/>
<path d="M218.962 52.3228C218.74 52.8887 218.342 53.3681 217.826 53.69C217.315 53.9676 216.724 54.0628 216.151 53.9596C216.029 53.9446 215.911 53.9053 215.804 53.8441C215.701 53.8012 215.613 53.7271 215.554 53.6322C215.49 53.553 215.444 53.4611 215.419 53.3627C215.399 53.2609 215.399 53.1563 215.419 53.0546C215.444 52.8547 215.54 52.6703 215.689 52.5346C215.778 52.466 215.881 52.4183 215.991 52.395C216.101 52.3716 216.215 52.3733 216.324 52.3998C216.5 52.4491 216.687 52.4491 216.863 52.3998C216.944 52.3801 217.019 52.342 217.082 52.2885C217.146 52.2351 217.196 52.1678 217.229 52.0917L215.303 47.913C215.267 47.7872 215.267 47.6537 215.303 47.5279C215.275 47.4076 215.275 47.2823 215.303 47.162C215.354 47.0572 215.419 46.96 215.496 46.8731C215.594 46.7969 215.705 46.7382 215.823 46.6998C215.944 46.6711 216.069 46.6711 216.189 46.6998C216.309 46.6704 216.435 46.6704 216.555 46.6998C216.668 46.7454 216.773 46.8106 216.863 46.8924C216.96 46.9971 217.032 47.1221 217.075 47.2582L218.134 50.1083L219.097 47.2005C219.132 47.0611 219.206 46.9344 219.309 46.8346C219.396 46.7489 219.502 46.6832 219.617 46.642C219.731 46.6127 219.85 46.6127 219.964 46.642C220.084 46.6147 220.209 46.6147 220.33 46.642C220.442 46.6807 220.546 46.7394 220.638 46.8153C220.72 46.902 220.792 46.9992 220.849 47.1042C220.87 47.2253 220.87 47.349 220.849 47.4701C220.876 47.5971 220.876 47.7282 220.849 47.8552L218.962 52.3228Z" fill="white"/>
<path d="M13.9746 18.512C12.8958 16.8674 12.2369 14.9833 12.0557 13.0248C11.8744 11.0663 12.1764 9.09332 12.935 7.27868C15.5106 0.824175 22.5702 -0.215394 27.7059 0.0328559C32.8416 0.281106 44.0284 2.01886 54.4549 0.0328559L51.2276 4.8117L33.5088 10.6145H19.5447L15.2158 13.5004L13.897 16.2002L13.9746 18.512Z" fill="#0062FF"/>
<path d="M13.9746 18.512C13.9746 18.512 14.921 12.3057 23.5943 13.097C32.2675 13.8883 52.1741 15.8898 54.4549 0.0328369C54.4549 0.0328369 48.652 9.03194 29.1799 6.40979C29.1799 6.40979 9.92499 3.77211 13.9746 18.512Z" fill="#0052C9"/>
<path d="M46.9143 20.5445C52.6706 20.5445 53.6171 28.5351 51.9103 34.0276L50.4519 38.822C49.0494 43.328 46.1831 47.2371 42.3073 49.9296C38.4315 52.6222 33.768 53.9441 29.0558 53.686C24.6911 53.6045 20.3704 52.797 16.2709 51.2966C7.0546 47.2625 -1.4635 38.4806 0.212192 22.8719C1.51551 10.6766 8.90097 5.0134 12.0817 3.10498C12.1537 3.03708 12.2497 3.00055 12.3486 3.00346C12.4476 3.00637 12.5413 3.04849 12.6092 3.12051C12.6771 3.19252 12.7136 3.28853 12.7107 3.38747C12.7078 3.4864 12.6657 3.58014 12.5937 3.64803C10.3284 6.92183 5.08412 15.7347 8.80787 24.5321C8.80787 24.5321 12.904 41.5993 30.5298 38.4962C31.7416 38.2996 32.8875 37.8114 33.8687 37.0735C34.8499 36.3356 35.6369 35.3701 36.1619 34.2604C36.1901 34.1974 36.2022 34.1284 36.1973 34.0596C36.1923 33.9908 36.1705 33.9242 36.1336 33.8659C36.0968 33.8076 36.0461 33.7592 35.9861 33.7252C35.926 33.6911 35.8586 33.6724 35.7896 33.6708H35.0603C34.1951 33.6728 33.338 33.5042 32.538 33.1745C31.7381 32.8448 31.011 32.3605 30.3985 31.7495C29.786 31.1384 29.3 30.4125 28.9684 29.6133C28.6369 28.8141 28.4662 27.9574 28.4662 27.0921C28.4662 26.2269 28.6369 25.3702 28.9684 24.571C29.3 23.7719 29.786 23.0459 30.3985 22.4349C31.011 21.8238 31.7381 21.3395 32.538 21.0099C33.338 20.6802 34.1951 20.5115 35.0603 20.5135L46.9143 20.5445Z" fill="url(#paint6_linear_1439_4349)"/>
<path d="M35.6034 33.7484C35.6034 33.7484 53.012 34.3379 44.4473 48.2244C44.4473 48.2244 52.9033 41.4441 52.6241 27.6973C52.6241 27.6973 52.9189 20.7617 47.5194 20.4359H34.3777C34.3777 20.4359 28.4352 20.6066 28.4352 26.5025C28.4352 31.7623 31.6314 33.7484 35.6034 33.7484Z" fill="url(#paint7_linear_1439_4349)"/>
<defs>
<linearGradient id="paint0_linear_1439_4349" x1="69.6382" y1="21.4236" x2="89.9172" y2="21.4236" gradientUnits="userSpaceOnUse">
<stop stop-color="#3F8CFC"/>
<stop offset="0.47" stop-color="#0F61D6"/>
<stop offset="0.57" stop-color="#0A51C1"/>
<stop offset="0.72" stop-color="#0441AC"/>
<stop offset="0.87" stop-color="#01379F"/>
<stop offset="1" stop-color="#00349B"/>
</linearGradient>
<linearGradient id="paint1_linear_1439_4349" x1="67.1247" y1="29.7245" x2="78.0477" y2="29.7245" gradientUnits="userSpaceOnUse">
<stop stop-color="#3F8CFC"/>
<stop offset="0.47" stop-color="#0F61D6"/>
<stop offset="0.57" stop-color="#0A51C1"/>
<stop offset="0.72" stop-color="#0441AC"/>
<stop offset="0.87" stop-color="#01379F"/>
<stop offset="1" stop-color="#00349B"/>
</linearGradient>
<linearGradient id="paint2_linear_1439_4349" x1="109.017" y1="20.5392" x2="124.439" y2="20.5392" gradientUnits="userSpaceOnUse">
<stop stop-color="#3F8CFC"/>
<stop offset="0.47" stop-color="#0F61D6"/>
<stop offset="0.57" stop-color="#0A51C1"/>
<stop offset="0.72" stop-color="#0441AC"/>
<stop offset="0.87" stop-color="#01379F"/>
<stop offset="1" stop-color="#00349B"/>
</linearGradient>
<linearGradient id="paint3_linear_1439_4349" x1="132.709" y1="21.3616" x2="141.507" y2="21.3616" gradientUnits="userSpaceOnUse">
<stop stop-color="#3F8CFC"/>
<stop offset="0.47" stop-color="#0F61D6"/>
<stop offset="0.57" stop-color="#0A51C1"/>
<stop offset="0.72" stop-color="#0441AC"/>
<stop offset="0.87" stop-color="#01379F"/>
<stop offset="1" stop-color="#00349B"/>
</linearGradient>
<linearGradient id="paint4_linear_1439_4349" x1="157.814" y1="21.1599" x2="142.158" y2="21.1599" gradientUnits="userSpaceOnUse">
<stop stop-color="#3F8CFC"/>
<stop offset="0.47" stop-color="#0F61D6"/>
<stop offset="0.57" stop-color="#0A51C1"/>
<stop offset="0.72" stop-color="#0441AC"/>
<stop offset="0.87" stop-color="#01379F"/>
<stop offset="1" stop-color="#00349B"/>
</linearGradient>
<linearGradient id="paint5_linear_1439_4349" x1="105.029" y1="21.3305" x2="92.8496" y2="21.3305" gradientUnits="userSpaceOnUse">
<stop stop-color="#3F8CFC"/>
<stop offset="0.47" stop-color="#0F61D6"/>
<stop offset="0.57" stop-color="#0A51C1"/>
<stop offset="0.72" stop-color="#0441AC"/>
<stop offset="0.87" stop-color="#01379F"/>
<stop offset="1" stop-color="#00349B"/>
</linearGradient>
<linearGradient id="paint6_linear_1439_4349" x1="-0.00502655" y1="28.38" x2="52.6706" y2="28.38" gradientUnits="userSpaceOnUse">
<stop stop-color="#3F8CFC"/>
<stop offset="0.47" stop-color="#0F61D6"/>
<stop offset="0.57" stop-color="#0A51C1"/>
<stop offset="0.72" stop-color="#0441AC"/>
<stop offset="0.87" stop-color="#01379F"/>
<stop offset="1" stop-color="#00349B"/>
</linearGradient>
<linearGradient id="paint7_linear_1439_4349" x1="32.764" y1="21.491" x2="54.1446" y2="41.0097" gradientUnits="userSpaceOnUse">
<stop stop-color="#3F8CFC"/>
<stop offset="0.47" stop-color="#0F61D6"/>
<stop offset="0.57" stop-color="#0A51C1"/>
<stop offset="0.72" stop-color="#0441AC"/>
<stop offset="0.87" stop-color="#01379F"/>
<stop offset="1" stop-color="#00349B"/>
</linearGradient>
</defs>
</svg>
